<svg width="1815" height="495" viewBox="0 0 1815 495" fill="none" xmlns="http://www.w3.org/2000/svg">
<path d="M1180 494.968V14.9995H1265V299.988L1380 154.876H1475L1335 324.986L1475 494.968L1380 494.979L1265 349.985V494.968H1180Z" fill="white"/>
<path d="M720 494.979V154.994H805V494.979H720Z" fill="white"/>
<ellipse cx="762.5" cy="57.4976" rx="57.5" ry="57.4976" fill="white"/>
<path d="M370 494.968V14.9995H455V194.645C466.883 178.646 480.649 166.761 500.302 158.99C520.412 150.762 540.521 146.648 560.631 146.648C599.936 146.648 632.157 159.447 657.294 185.045C682.431 210.187 695 246.756 695 294.753V494.968L610 494.999V314.987C610 289.389 603.373 265.272 590.119 249.73C577.322 233.731 557.637 224.991 532.5 224.991C507.363 224.991 488.656 233.731 474.945 249.73C461.691 265.272 455 289.389 455 314.987V494.968H370Z" fill="white"/>
<path d="M830 494.979V154.994H915V194.651C926.883 178.652 940.649 166.767 960.302 158.996C980.412 150.768 1000.52 146.654 1020.63 146.654C1059.94 146.654 1092.16 159.453 1117.29 185.052C1142.43 210.193 1155 246.762 1155 294.759V494.979H1070V314.993C1070 289.395 1063.37 265.278 1050.12 249.736C1037.32 233.737 1017.64 224.997 992.5 224.997C967.363 224.997 948.656 233.737 934.945 249.736C921.691 265.278 915 289.395 915 314.993V494.979H830Z" fill="white"/>
<path d="M1490 494.979V154.994H1575V194.651C1586.88 178.652 1600.65 166.767 1620.3 158.996C1640.41 150.768 1660.52 146.654 1680.63 146.654C1719.94 146.654 1752.16 159.453 1777.29 185.052C1802.43 210.193 1815 246.762 1815 294.759V494.979H1730V314.993C1730 289.395 1723.37 265.278 1710.12 249.736C1697.32 233.737 1677.64 224.997 1652.5 224.997C1627.36 224.997 1608.66 233.737 1594.95 249.736C1581.69 265.278 1575 289.395 1575 314.993V494.979H1490Z" fill="white"/>
<path d="M130 494.968V89.9964H0V14.9995H345V89.9964H215V494.968H130Z" fill="white"/>
</svg>
